<?xml version="1.0" encoding="UTF-8"?>
<svg width="18px" height="18px" viewBox="0 0 18 18" version="1.1" xmlns="http://www.w3.org/2000/svg" xmlns:xlink="http://www.w3.org/1999/xlink">
    <!-- Generator: Sketch 53.1 (72631) - https://sketchapp.com -->
    <title>Word-帮助</title>
    <desc>Created with Sketch.</desc>
    <g id="RD-Word-3.20定稿" stroke="none" stroke-width="1" fill="none" fill-rule="evenodd">
        <g id="Word-帮助" transform="translate(-1394.000000, -750.000000)">
            <g id="帮助icon" transform="translate(1394.000000, 750.000000)">
                <rect id="矩形" x="0" y="0" width="18" height="18"></rect>
                <g id="分组" transform="translate(5.000000, 3.000000)" fill="#999999" fill-rule="nonzero">
                    <path d="M3.9368085,9.11280843 L3.05456905,9.11280843 C2.97780383,9.11912522 2.90202159,9.08091716 2.84619576,9.02706566 C2.79036993,8.97321417 2.75978579,8.89777795 2.76210062,8.81964378 C2.72723908,8.04965241 2.78732638,7.27825732 2.94096561,6.52339177 C3.0305177,6.15200599 3.21860804,5.81261989 3.48481185,5.54208749 C3.72652129,5.28204186 3.98756748,5.05143536 4.24861368,4.80610929 C4.50965987,4.56078322 4.82146505,4.29092454 5.11635057,4.04559847 C5.69645322,3.55494633 5.62635748,2.70121161 4.90122917,2.29887686 C4.48069006,2.0669593 3.98305055,2.02666197 3.53160126,2.18796854 C3.08015198,2.34927512 2.71713084,2.69709366 2.53247666,3.1452518 C2.47327406,3.29525117 2.42480647,3.44938862 2.38745099,3.60646481 C2.32944073,3.81989849 2.23275695,3.89594957 2.01521846,3.8689637 L0.291830151,3.65798328 C0.202288885,3.65418242 0.118942132,3.61054636 0.0639855661,3.53869562 C0.00902899976,3.46684488 -0.0119581837,3.37407374 0.00661301199,3.28508766 C0.170202878,1.68304898 1.36656437,0.388504872 2.93129723,0.120381363 C3.95011974,-0.108697667 5.01398957,-0.00920963498 5.97441908,0.404959603 C6.83724132,0.763215403 7.50944825,1.47669511 7.82349629,2.36756816 C8.16100808,3.24123863 8.00759343,4.23178029 7.42225862,4.95821145 C7.00787155,5.46753071 6.54115034,5.9305441 6.03001225,6.33939722 C5.86806692,6.48168634 5.71337288,6.6337885 5.54659337,6.77362436 C5.28349027,6.99275961 5.13603578,7.32382747 5.14777279,7.66906451 C5.14777279,8.0444134 5.12360185,8.41730903 5.11393347,8.79265791 C5.1231423,8.88303823 5.09173486,8.97281862 5.02843267,9.03706798 C4.96513048,9.10131734 4.87667364,9.12215505 4.78762573,9.11280843 L3.9368085,9.11280843 Z" id="路径"></path>
                    <path d="M5.18402921,11.7733697 C5.18402921,12.4508189 4.6429442,13 3.97548201,13 C3.30801982,13 2.76693481,12.4508189 2.76693481,11.7733697 C2.76693481,11.0959204 3.30801982,10.5467393 3.97548201,10.5467393 C4.6429442,10.5467393 5.18402921,11.0959204 5.18402921,11.7733697 L5.18402921,11.7733697 Z" id="路径"></path>
                </g>
            </g>
        </g>
    </g>
</svg>