<svg t="1671057424300" class="icon" viewBox="0 0 1024 1024" version="1.1" xmlns="http://www.w3.org/2000/svg" p-id="2052" width="200" height="200"><path d="M757.76 819.2h-491.52A61.44 61.44 0 0 1 204.8 757.76v-491.52A61.44 61.44 0 0 1 266.24 204.8H450.56v40.96H266.24a20.48 20.48 0 0 0-20.48 20.48v491.52a20.48 20.48 0 0 0 20.48 20.48h491.52a20.48 20.48 0 0 0 20.48-20.48v-163.84h40.96v163.84a61.44 61.44 0 0 1-61.44 61.44zM819.2 368.64h-40.96V245.76h-122.88V204.8h143.36a20.48 20.48 0 0 1 20.48 20.48z" p-id="2053" fill="#16181b"></path><path d="M374.5792 620.42112l409.51808-409.51808 28.95872 28.95872-409.51808 409.51808z" p-id="2054" fill="#16181b"></path></svg>